{
  "accessors": [
    {
      "bufferView": 0,
      "componentType": 5126,
      "count": 5093,
      "max": [
        141.49203491210938,
        74.93570709228516,
        229.10910034179688
      ],
      "min": [
        -67.07450103759766,
        -96.13490295410156,
        -18.146099090576172
      ],
      "type": "VEC3"
    },
    {
      "bufferView": 1,
      "componentType": 5125,
      "count": 11931,
      "type": "SCALAR"
    },
    {
      "bufferView": 2,
      "componentType": 5126,
      "count": 5093,
      "type": "VEC3"
    },
    {
      "bufferView": 3,
      "componentType": 5126,
      "count": 5093,
      "type": "VEC4"
    },
    {
      "bufferView": 4,
      "componentType": 5126,
      "count": 5093,
      "type": "VEC2"
    },
    {
      "bufferView": 5,
      "componentType": 5126,
      "count": 5093,
      "max": [
        141.49203491210938,
        74.93570709228516,
        229.10910034179688
      ],
      "min": [
        -67.07450103759766,
        -96.13490295410156,
        -18.146099090576172
      ],
      "type": "VEC3"
    },
    {
      "bufferView": 6,
      "componentType": 5125,
      "count": 906,
      "type": "SCALAR"
    },
    {
      "bufferView": 7,
      "componentType": 5126,
      "count": 5093,
      "type": "VEC3"
    },
    {
      "bufferView": 8,
      "componentType": 5126,
      "count": 5093,
      "type": "VEC4"
    },
    {
      "bufferView": 9,
      "componentType": 5126,
      "count": 5093,
      "type": "VEC2"
    },
    {
      "bufferView": 10,
      "componentType": 5126,
      "count": 4549,
      "max": [
        166.00755310058594,
        127.53197479248047,
        357.0252380371094
      ],
      "min": [
        -79.51229858398438,
        -125.73400115966797,
        -30.313899993896484
      ],
      "type": "VEC3"
    },
    {
      "bufferView": 11,
      "componentType": 5125,
      "count": 6673,
      "type": "SCALAR"
    },
    {
      "bufferView": 12,
      "componentType": 5126,
      "count": 4549,
      "type": "VEC3"
    },
    {
      "bufferView": 13,
      "componentType": 5126,
      "count": 4549,
      "type": "VEC4"
    },
    {
      "bufferView": 14,
      "componentType": 5126,
      "count": 4549,
      "type": "VEC2"
    },
    {
      "bufferView": 15,
      "componentType": 5126,
      "count": 4549,
      "max": [
        166.00755310058594,
        127.53197479248047,
        357.0252380371094
      ],
      "min": [
        -79.51229858398438,
        -125.73400115966797,
        -30.313899993896484
      ],
      "type": "VEC3"
    },
    {
      "bufferView": 16,
      "componentType": 5125,
      "count": 471,
      "type": "SCALAR"
    },
    {
      "bufferView": 17,
      "componentType": 5126,
      "count": 4549,
      "type": "VEC3"
    },
    {
      "bufferView": 18,
      "componentType": 5126,
      "count": 4549,
      "type": "VEC4"
    },
    {
      "bufferView": 19,
      "componentType": 5126,
      "count": 4549,
      "type": "VEC2"
    },
    {
      "bufferView": 20,
      "componentType": 5126,
      "count": 3014,
      "max": [
        167.12399291992188,
        127.53197479248047,
        357.0251770019531
      ],
      "min": [
        -79.51229858398438,
        -125.73400115966797,
        -29.841693878173828
      ],
      "type": "VEC3"
    },
    {
      "bufferView": 21,
      "componentType": 5125,
      "count": 6506,
      "type": "SCALAR"
    },
    {
      "bufferView": 22,
      "componentType": 5126,
      "count": 3014,
      "type": "VEC3"
    },
    {
      "bufferView": 23,
      "componentType": 5126,
      "count": 3014,
      "type": "VEC4"
    },
    {
      "bufferView": 24,
      "componentType": 5126,
      "count": 3014,
      "type": "VEC2"
    },
    {
      "bufferView": 25,
      "componentType": 5126,
      "count": 3014,
      "max": [
        167.12399291992188,
        127.53197479248047,
        357.0251770019531
      ],
      "min": [
        -79.51229858398438,
        -125.73400115966797,
        -29.841693878173828
      ],
      "type": "VEC3"
    },
    {
      "bufferView": 26,
      "componentType": 5125,
      "count": 453,
      "type": "SCALAR"
    },
    {
      "bufferView": 27,
      "componentType": 5126,
      "count": 3014,
      "type": "VEC3"
    },
    {
      "bufferView": 28,
      "componentType": 5126,
      "count": 3014,
      "type": "VEC4"
    },
    {
      "bufferView": 29,
      "componentType": 5126,
      "count": 3014,
      "type": "VEC2"
    },
    {
      "bufferView": 30,
      "componentType": 5126,
      "count": 2958,
      "max": [
        167.12399291992188,
        129.2479248046875,
        357.0251770019531
      ],
      "min": [
        -79.51229858398438,
        -135.61199951171875,
        -29.841693878173828
      ],
      "type": "VEC3"
    },
    {
      "bufferView": 31,
      "componentType": 5125,
      "count": 5305,
      "type": "SCALAR"
    },
    {
      "bufferView": 32,
      "componentType": 5126,
      "count": 2958,
      "type": "VEC3"
    },
    {
      "bufferView": 33,
      "componentType": 5126,
      "count": 2958,
      "type": "VEC4"
    },
    {
      "bufferView": 34,
      "componentType": 5126,
      "count": 2958,
      "type": "VEC2"
    },
    {
      "bufferView": 35,
      "componentType": 5126,
      "count": 2958,
      "max": [
        167.12399291992188,
        129.2479248046875,
        357.0251770019531
      ],
      "min": [
        -79.51229858398438,
        -135.61199951171875,
        -29.841693878173828
      ],
      "type": "VEC3"
    },
    {
      "bufferView": 36,
      "componentType": 5125,
      "count": 318,
      "type": "SCALAR"
    },
    {
      "bufferView": 37,
      "componentType": 5126,
      "count": 2958,
      "type": "VEC3"
    },
    {
      "bufferView": 38,
      "componentType": 5126,
      "count": 2958,
      "type": "VEC4"
    },
    {
      "bufferView": 39,
      "componentType": 5126,
      "count": 2958,
      "type": "VEC2"
    }
  ],
  "asset": {
    "version": "2.0"
  },
  "bufferViews": [
    {
      "buffer": 0,
      "byteLength": 61116,
      "target": 34962
    },
    {
      "buffer": 1,
      "byteLength": 47724,
      "target": 34963
    },
    {
      "buffer": 2,
      "byteLength": 61116,
      "target": 34962
    },
    {
      "buffer": 3,
      "byteLength": 81488,
      "target": 34962
    },
    {
      "buffer": 4,
      "byteLength": 40744,
      "target": 34962
    },
    {
      "buffer": 0,
      "byteLength": 61116,
      "target": 34962
    },
    {
      "buffer": 5,
      "byteLength": 3624,
      "target": 34963
    },
    {
      "buffer": 2,
      "byteLength": 61116,
      "target": 34962
    },
    {
      "buffer": 3,
      "byteLength": 81488,
      "target": 34962
    },
    {
      "buffer": 4,
      "byteLength": 40744,
      "target": 34962
    },
    {
      "buffer": 6,
      "byteLength": 54588,
      "target": 34962
    },
    {
      "buffer": 7,
      "byteLength": 26692,
      "target": 34963
    },
    {
      "buffer": 8,
      "byteLength": 54588,
      "target": 34962
    },
    {
      "buffer": 9,
      "byteLength": 72784,
      "target": 34962
    },
    {
      "buffer": 10,
      "byteLength": 36392,
      "target": 34962
    },
    {
      "buffer": 6,
      "byteLength": 54588,
      "target": 34962
    },
    {
      "buffer": 11,
      "byteLength": 1884,
      "target": 34963
    },
    {
      "buffer": 8,
      "byteLength": 54588,
      "target": 34962
    },
    {
      "buffer": 9,
      "byteLength": 72784,
      "target": 34962
    },
    {
      "buffer": 10,
      "byteLength": 36392,
      "target": 34962
    },
    {
      "buffer": 12,
      "byteLength": 36168,
      "target": 34962
    },
    {
      "buffer": 13,
      "byteLength": 26024,
      "target": 34963
    },
    {
      "buffer": 14,
      "byteLength": 36168,
      "target": 34962
    },
    {
      "buffer": 15,
      "byteLength": 48224,
      "target": 34962
    },
    {
      "buffer": 16,
      "byteLength": 24112,
      "target": 34962
    },
    {
      "buffer": 12,
      "byteLength": 36168,
      "target": 34962
    },
    {
      "buffer": 17,
      "byteLength": 1812,
      "target": 34963
    },
    {
      "buffer": 14,
      "byteLength": 36168,
      "target": 34962
    },
    {
      "buffer": 15,
      "byteLength": 48224,
      "target": 34962
    },
    {
      "buffer": 16,
      "byteLength": 24112,
      "target": 34962
    },
    {
      "buffer": 18,
      "byteLength": 35496,
      "target": 34962
    },
    {
      "buffer": 19,
      "byteLength": 21220,
      "target": 34963
    },
    {
      "buffer": 20,
      "byteLength": 35496,
      "target": 34962
    },
    {
      "buffer": 21,
      "byteLength": 47328,
      "target": 34962
    },
    {
      "buffer": 22,
      "byteLength": 23664,
      "target": 34962
    },
    {
      "buffer": 18,
      "byteLength": 35496,
      "target": 34962
    },
    {
      "buffer": 23,
      "byteLength": 1272,
      "target": 34963
    },
    {
      "buffer": 20,
      "byteLength": 35496,
      "target": 34962
    },
    {
      "buffer": 21,
      "byteLength": 47328,
      "target": 34962
    },
    {
      "buffer": 22,
      "byteLength": 23664,
      "target": 34962
    }
  ],
  "buffers": [
    {
      "byteLength": 61116,
      "uri": "data:application/octet-stream;base64,"
    },
    {
      "byteLength": 47724,
      "uri": "data:application/octet-stream;base64,"
    },
    {
      "byteLength": 61116,
      "uri": "data:application/octet-stream;base64,"
    },
    {
      "byteLength": 81488,
      "uri": "data:application/octet-stream;base64,"
    },
    {
      "byteLength": 40744,
      "uri": "data:application/octet-stream;base64,"
    },
    {
      "byteLength": 3624,
      "uri": "data:application/octet-stream;base64,"
    },
    {
      "byteLength": 54588,
      "uri": "data:application/octet-stream;base64,"
    },
    {
      "byteLength": 26692,
      "uri": "data:application/octet-stream;base64,"
    },
    {
      "byteLength": 54588,
      "uri": "data:application/octet-stream;base64,"
    },
    {
      "byteLength": 72784,
      "uri": "data:application/octet-stream;base64,"
    },
    {
      "byteLength": 36392,
      "uri": "data:application/octet-stream;base64,"
    },
    {
      "byteLength": 1884,
      "uri": "data:application/octet-stream;base64,"
    },
    {
      "byteLength": 36168,
      "uri": "data:application/octet-stream;base64,"
    },
    {
      "byteLength": 26024,
      "uri": "data:application/octet-stream;base64,"
    },
    {
      "byteLength": 36168,
      "uri": "data:application/octet-stream;base64,"
    },
    {
      "byteLength": 48224,
      "uri": "data:application/octet-stream;base64,"
    },
    {
      "byteLength": 24112,
      "uri": "data:application/octet-stream;base64,"
    },
    {
      "byteLength": 1812,
      "uri": "data:application/octet-stream;base64,"
    },
    {
      "byteLength": 35496,
      "uri": "data:application/octet-stream;base64,"
    },
    {
      "byteLength": 21220,
      "uri": "data:application/octet-stream;base64,"
    },
    {
      "byteLength": 35496,
      "uri": "data:application/octet-stream;base64,"
    },
    {
      "byteLength": 47328,
      "uri": "data:application/octet-stream;base64,"
    },
    {
      "byteLength": 23664,
      "uri": "data:application/octet-stream;base64,"
    },
    {
      "byteLength": 1272,
      "uri": "data:application/octet-stream;base64,"
    }
  ],
  "images": [
    {
      "uri": "textures/Character.png"
    },
    {
      "uri": "textures/House.png"
    }
  ],
  "materials": [
    {
      "doubleSided": true,
      "name": "Char",
      "pbrMetallicRoughness": {
        "baseColorFactor": [
          0.800000011920929,
          0.800000011920929,
          0.800000011920929,
          1.0
        ],
        "baseColorTexture": {
          "index": 0
        }
      }
    },
    {
      "doubleSided": true,
      "name": "house",
      "pbrMetallicRoughness": {
        "baseColorFactor": [
          0.800000011920929,
          0.800000011920929,
          0.800000011920929,
          1.0
        ],
        "baseColorTexture": {
          "index": 1
        }
      }
    }
  ],
  "meshes": [
    {
      "primitives": [
        {
          "attributes": {
            "NORMAL": 2,
            "POSITION": 0,
            "TANGENT": 3,
            "TEXCOORD_0": 4
          },
          "indices": 1,
          "material": 0,
          "mode": 5
        },
        {
          "attributes": {
            "NORMAL": 7,
            "POSITION": 5,
            "TANGENT": 8,
            "TEXCOORD_0": 9
          },
          "indices": 6,
          "material": 0,
          "mode": 4
        }
      ]
    },
    {
      "primitives": [
        {
          "attributes": {
            "NORMAL": 12,
            "POSITION": 10,
            "TANGENT": 13,
            "TEXCOORD_0": 14
          },
          "indices": 11,
          "material": 1,
          "mode": 5
        },
        {
          "attributes": {
            "NORMAL": 17,
            "POSITION": 15,
            "TANGENT": 18,
            "TEXCOORD_0": 19
          },
          "indices": 16,
          "material": 1,
          "mode": 4
        }
      ]
    },
    {
      "primitives": [
        {
          "attributes": {
            "NORMAL": 22,
            "POSITION": 20,
            "TANGENT": 23,
            "TEXCOORD_0": 24
          },
          "indices": 21,
          "material": 1,
          "mode": 5
        },
        {
          "attributes": {
            "NORMAL": 27,
            "POSITION": 25,
            "TANGENT": 28,
            "TEXCOORD_0": 29
          },
          "indices": 26,
          "material": 1,
          "mode": 4
        }
      ]
    },
    {
      "primitives": [
        {
          "attributes": {
            "NORMAL": 32,
            "POSITION": 30,
            "TANGENT": 33,
            "TEXCOORD_0": 34
          },
          "indices": 31,
          "material": 1,
          "mode": 5
        },
        {
          "attributes": {
            "NORMAL": 37,
            "POSITION": 35,
            "TANGENT": 38,
            "TEXCOORD_0": 39
          },
          "indices": 36,
          "material": 1,
          "mode": 4
        }
      ]
    }
  ],
  "nodes": [
    {
      "mesh": 0,
      "name": "_gltfNode_0"
    },
    {
      "mesh": 1,
      "name": "_gltfNode_1"
    },
    {
      "mesh": 2,
      "name": "_gltfNode_2"
    },
    {
      "mesh": 3,
      "name": "_gltfNode_3"
    },
    {
      "children": [
        0,
        1,
        2,
        3
      ],
      "name": "GLTF Converted Scene",
      "rotation": [
        -0.7071067811865475,
        0.0,
        0.0,
        0.7071067811865476
      ],
      "scale": [
        1.0,
        1.0,
        1.0
      ],
      "translation": [
        0.0,
        0.0,
        0.0
      ]
    }
  ],
  "samplers": [
    {
      "magFilter": 9729,
      "minFilter": 9729,
      "wrapS": 10497,
      "wrapT": 10497
    },
    {
      "magFilter": 9729,
      "minFilter": 9729,
      "wrapS": 10497,
      "wrapT": 10497
    }
  ],
  "scene": 0,
  "scenes": [
    {
      "nodes": [
        4
      ]
    }
  ],
  "textures": [
    {
      "sampler": 0,
      "source": 0
    },
    {
      "sampler": 1,
      "source": 1
    }
  ]
}
